<svg width="100%" height="100%" viewBox="0 0 1621 1621" version="1.1" xmlns="http://www.w3.org/2000/svg" style="fill-rule:evenodd;clip-rule:evenodd;stroke-linejoin:round;stroke-miterlimit:2;"><circle cx="810.417" cy="810.417" r="810.417" style="fill:#9200ff;"/><path d="M914.991,685.042c0,-50.793 -35.854,-78.833 -98.828,-78.833l-115.837,0l0,163.642l97.68,-0c75.385,-0.23 116.985,-30.568 116.985,-84.809Zm421.745,-29.418c-21.834,-71.019 -25.052,-158.126 -22.523,-225.468c2.528,-70.099 -52.173,-134.452 -125.72,-134.452l-755.693,-0c-73.777,-0 -128.248,64.583 -125.72,134.452c2.299,67.342 -0.689,154.449 -22.523,225.468c-22.064,71.248 -59.068,116.295 -119.974,122.041l0,65.503c60.676,5.746 97.91,50.793 119.974,122.042c21.834,71.018 25.052,158.126 22.523,225.467c-2.528,70.099 52.173,134.453 125.72,134.453l755.464,-0c73.776,-0 128.247,-64.584 125.719,-134.453c-2.299,-67.341 0.689,-154.449 22.524,-225.467c22.064,-71.249 59.067,-116.296 119.743,-122.042l-0,-65.503c-60.446,-5.746 -97.679,-50.793 -119.514,-122.041Zm-498.28,428.64l-225.007,-0l-0,-547.694l223.858,-0c99.518,-0 164.791,53.781 164.791,136.521c0,58.148 -43.898,110.09 -99.978,119.054l0,2.988c76.305,8.274 127.558,61.136 127.558,133.993c0,96.76 -71.938,155.138 -191.222,155.138Zm-22.983,-249.83l-115.147,0l0,180.19l120.203,0c78.604,0 120.204,-31.487 120.204,-90.784c-0,-59.068 -42.75,-89.406 -125.26,-89.406Z" style="fill:#fff;fill-rule:nonzero;"/></svg>