 <svg width="100%" height="100%" viewBox="0 0 1621 1621" version="1.1" xmlns="http://www.w3.org/2000/svg" style="fill-rule:evenodd;clip-rule:evenodd;stroke-linejoin:round;stroke-miterlimit:2;"><circle cx="810.417" cy="810.417" r="810.417" style="fill:#404136;"/><path d="M810.162,1451.67c-17.051,-0 -34.356,-4.581 -49.371,-13.234l-157.02,-92.888c-23.413,-13.234 -11.961,-17.815 -4.326,-20.36c31.302,-10.943 37.664,-13.233 71.002,-32.32c3.563,-2.036 8.144,-1.272 11.707,1.018l120.628,71.512c4.326,2.545 10.434,2.545 14.506,-0l470.042,-271.286c4.326,-2.545 7.126,-7.635 7.126,-12.725l-0,-542.571c-0,-5.345 -2.8,-10.18 -7.38,-12.979l-469.788,-271.032c-4.326,-2.545 -10.18,-2.545 -14.506,0l-469.533,271.286c-4.581,2.545 -7.38,7.635 -7.38,12.979l-0,542.317c-0,5.09 2.799,10.18 7.38,12.47l128.771,74.311c69.985,34.865 112.739,-6.107 112.739,-47.589l0,-535.446c0,-7.635 6.108,-13.488 13.743,-13.488l59.55,-0c7.381,-0 13.743,5.853 13.743,13.488l-0,535.7c-0,93.143 -50.898,146.586 -139.206,146.586c-27.23,0 -48.607,0 -108.158,-29.521l-123.173,-71.002c-30.539,-17.56 -49.371,-50.389 -49.371,-85.763l0,-542.317c0,-35.12 18.832,-68.203 49.371,-85.763l469.533,-271.286c29.775,-16.796 69.221,-16.796 98.742,-0l470.042,271.54c30.539,17.56 49.371,50.389 49.371,85.763l0,542.317c0,35.12 -18.832,67.949 -49.371,85.763l-470.042,271.286c-15.015,8.653 -32.066,13.234 -49.371,13.234Zm379.444,-534.683c0,-101.541 -68.712,-128.517 -213.008,-147.604c-146.077,-19.341 -160.837,-29.266 -160.837,-63.368c-0,-28.248 12.47,-65.912 120.628,-65.912c96.452,-0 132.08,20.868 146.84,86.017c1.273,6.108 6.872,10.689 13.234,10.689l61.077,-0c3.818,-0 7.381,-1.527 9.925,-4.327c2.545,-2.799 3.818,-6.616 3.563,-10.434c-9.416,-112.23 -83.981,-164.4 -234.639,-164.4c-134.116,-0 -214.026,56.497 -214.026,151.421c0,102.814 79.656,131.317 208.173,144.041c153.966,15.015 165.927,37.665 165.927,67.949c-0,52.425 -42.245,74.82 -141.242,74.82c-124.445,-0 -151.676,-31.302 -160.837,-93.143c-1.018,-6.617 -6.617,-11.452 -13.488,-11.452l-60.823,-0c-7.635,-0 -13.488,6.107 -13.488,13.488c-0,79.146 43.009,173.562 248.891,173.562c148.622,-0.255 234.13,-59.042 234.13,-161.347Z" style="fill:#69cf00;fill-rule:nonzero;"/></svg>