<svg width="100%" height="100%" viewBox="0 0 6755 6755" version="1.1" xmlns="http://www.w3.org/2000/svg" style="fill-rule:evenodd;clip-rule:evenodd;stroke-linejoin:round;stroke-miterlimit:2;"><g><circle cx="3377.08" cy="3377.08" r="3377.08" style="fill:#8793c2;"/><path d="M2068.33,3229.28c-100.508,515.265 -455.468,461.83 -891.853,461.83l174.3,-898.214c483.458,-0 811.7,-52.163 717.553,436.384Zm-1536.89,1371.49l466.918,0l110.687,-569.971c522.898,-0 847.324,38.168 1147.58,-243.001c332.06,-305.342 418.573,-848.596 181.933,-1120.86c-123.409,-142.492 -321.881,-212.467 -591.6,-212.467l-899.486,0l-416.028,2146.3Zm2362.58,-2717.54l464.374,-0l-110.687,569.971c400.761,0 772.261,-29.262 951.649,136.132c188.294,173.027 97.964,394.4 -105.597,1438.92l-470.736,0c195.928,-1010.17 232.824,-1094.14 161.577,-1170.48c-68.702,-73.791 -225.19,-58.524 -603.05,-58.524l-239.185,1229l-464.374,0l416.029,-2145.03Zm2823.14,1346.05c-101.781,522.898 -466.919,461.83 -891.853,461.83l174.299,-898.214c486.003,-0 811.701,-52.163 717.554,436.384Zm-1536.89,1371.49l468.191,0l110.687,-569.971c549.615,-0 853.685,31.806 1147.58,-243.001c332.059,-305.342 418.573,-848.596 181.933,-1120.86c-123.409,-142.492 -321.881,-212.467 -591.6,-212.467l-899.486,0l-417.301,2146.3Z" style="fill-rule:nonzero;"/></g></svg>