 <svg width="100%" height="100%" viewBox="0 0 1621 1621" version="1.1" xmlns="http://www.w3.org/2000/svg" style="fill-rule:evenodd;clip-rule:evenodd;stroke-linejoin:round;stroke-miterlimit:2;"><circle cx="810.417" cy="810.417" r="810.417" style="fill:#141d2e;"/><path d="M810.417,420.417c-173.334,-0 -281.667,86.666 -325,260c65,-86.667 140.833,-119.167 227.5,-97.5c49.448,12.35 84.789,48.244 123.909,87.942c63.724,64.687 137.487,139.558 298.591,139.558c173.333,-0 281.666,-86.667 325,-260c-65,86.666 -140.834,119.166 -227.5,97.5c-49.448,-12.35 -84.789,-48.245 -123.91,-87.943c-63.724,-64.687 -137.487,-139.557 -298.59,-139.557Zm-325,390c-173.334,-0 -281.667,86.666 -325,260c65,-86.667 140.833,-119.167 227.5,-97.5c49.448,12.374 84.789,48.244 123.909,87.942c63.724,64.687 137.487,139.558 298.591,139.558c173.333,-0 281.666,-86.667 325,-260c-65,86.666 -140.834,119.166 -227.5,97.5c-49.448,-12.35 -84.789,-48.245 -123.91,-87.943c-63.724,-64.687 -137.487,-139.557 -298.59,-139.557Z" style="fill:#38bdf8;"/></svg>