<svg width="100%" height="100%" viewBox="0 0 1621 1621" version="1.1" xmlns="http://www.w3.org/2000/svg" style="fill-rule:evenodd;clip-rule:evenodd;stroke-linejoin:round;stroke-miterlimit:2;"><circle cx="810.417" cy="810.417" r="810.417" style="fill:#fcde00;"/><path d="M714.933,992.986c-0,192.736 -113.167,280.705 -278.054,280.705c-148.972,0 -235.173,-76.917 -279.379,-170.191l151.625,-91.506c29.176,51.721 55.699,95.484 119.797,95.484c61.004,0 99.905,-23.871 99.905,-117.145l0,-632.582l186.106,0l-0,635.235Zm440.287,280.705c-172.844,0 -284.684,-82.222 -339.057,-190.084l151.626,-87.527c39.785,64.982 91.947,113.167 183.453,113.167c76.918,-0 126.428,-38.459 126.428,-91.948c-0,-63.656 -50.395,-86.201 -135.711,-123.776l-46.416,-19.892c-134.385,-57.026 -223.238,-129.081 -223.238,-280.706c-0,-139.69 106.535,-245.783 272.306,-245.783c118.471,0 203.346,41.111 264.349,148.973l-144.994,92.832c-31.828,-57.026 -66.308,-79.57 -119.797,-79.57c-54.373,-0 -88.853,34.48 -88.853,79.57c-0,55.699 34.48,78.244 114.492,113.166l46.416,19.892c158.256,67.635 247.109,137.038 247.109,292.642c0,167.097 -131.732,259.044 -308.113,259.044Z" style="fill-rule:nonzero;"/></svg>