 <svg width="100%" height="100%" viewBox="0 0 1621 1621" version="1.1" xmlns="http://www.w3.org/2000/svg" style="fill-rule:evenodd;clip-rule:evenodd;stroke-linejoin:round;stroke-miterlimit:2;"><circle cx="810.417" cy="810.417" r="810.417" style="fill:#303030;"/><path d="M1235.45,603.862c-14.15,-4.717 -28.3,-9.172 -42.451,-13.365c2.359,-9.695 4.455,-19.391 6.551,-29.087c32.232,-156.178 11.006,-281.697 -60.532,-323.1c-68.917,-39.569 -181.334,1.572 -295.062,100.625c-11.268,9.696 -22.273,19.915 -32.755,30.135c-7.075,-6.813 -14.413,-13.626 -21.75,-20.177c-119.23,-105.866 -238.722,-150.414 -310.26,-108.749c-68.656,39.831 -89.095,158.013 -60.27,305.806c2.882,14.674 6.027,29.087 9.695,43.761c-16.771,4.717 -33.279,9.958 -48.74,15.461c-139.932,48.478 -240.295,124.995 -240.295,204.132c0,81.758 106.914,163.778 252.349,213.566c11.792,3.931 23.584,7.862 35.638,11.268c-3.931,15.723 -7.337,31.184 -10.482,47.168c-27.514,145.435 -6.027,260.734 62.629,300.303c70.752,40.879 189.72,-1.048 305.543,-102.459c9.172,-8.124 18.344,-16.509 27.515,-25.419c11.53,11.268 23.584,22.012 35.638,32.494c112.155,96.432 223,135.477 291.393,95.908c70.752,-40.879 93.812,-164.826 63.939,-315.763c-2.358,-11.53 -4.979,-23.322 -7.861,-35.376c8.385,-2.359 16.509,-4.979 24.632,-7.599c151.199,-50.051 260.734,-131.023 260.734,-214.091c0,-79.399 -103.245,-156.44 -245.798,-205.442Zm-354.545,-222.476c97.48,-84.902 188.409,-118.182 229.812,-94.336c44.286,25.418 61.319,128.14 33.542,263.093c-1.834,8.909 -3.669,17.557 -6.027,26.204c-58.174,-13.102 -117.134,-22.536 -176.356,-27.777c-34.066,-48.74 -71.276,-95.384 -111.631,-139.145c10.22,-9.696 20.178,-18.867 30.66,-28.039Zm-303.186,563.919c13.365,22.798 26.991,45.596 41.403,67.87c-40.879,-4.455 -81.495,-11.006 -121.588,-19.653c11.53,-37.735 25.942,-76.779 42.713,-116.61c12.054,23.06 24.37,45.858 37.472,68.393Zm-79.399,-315.239c37.734,-8.385 77.827,-15.198 119.492,-20.439c-13.888,21.749 -27.515,44.023 -40.355,66.559c-12.84,22.274 -25.418,45.072 -37.21,68.131c-16.509,-39.044 -30.397,-77.303 -41.927,-114.251Zm71.8,180.549c17.295,-36.163 36.162,-71.538 56.078,-106.39c19.915,-34.852 41.403,-68.656 63.938,-101.936c39.307,-2.882 79.4,-4.454 120.279,-4.454c40.879,-0 81.233,1.572 120.278,4.454c22.274,33.018 43.499,66.822 63.677,101.412c20.177,34.589 39.044,69.965 56.863,105.865c-17.557,36.163 -36.424,71.801 -56.601,106.914c-19.916,34.852 -41.141,68.656 -63.415,102.198c-39.045,2.882 -79.661,4.192 -120.802,4.192c-41.141,0 -80.972,-1.31 -119.493,-3.668c-22.797,-33.28 -44.285,-67.346 -64.462,-102.197c-20.178,-34.852 -38.783,-70.228 -56.34,-106.39Zm473.252,134.166c13.364,-23.06 25.942,-46.382 38.258,-69.966c16.771,37.997 31.446,76.517 44.286,116.086c-40.617,9.172 -81.758,16.247 -123.161,20.964c14.151,-22.012 27.515,-44.548 40.617,-67.084Zm37.734,-200.464c-12.316,-23.059 -24.894,-46.119 -37.996,-68.655c-12.84,-22.274 -26.204,-44.286 -40.093,-66.035c42.189,5.241 82.544,12.316 120.279,20.963c-12.055,38.783 -26.205,76.517 -42.19,113.727Zm-270.167,-294.799c27.514,29.873 53.457,61.318 77.565,93.811c-51.885,-2.358 -104.032,-2.358 -155.916,0c25.68,-33.803 52.146,-65.249 78.351,-93.811Zm-303.972,-160.634c44.024,-25.68 141.766,11.006 244.75,102.198c6.551,5.765 13.102,12.054 19.915,18.343c-40.617,43.761 -78.089,90.405 -112.417,139.145c-59.222,5.241 -117.92,14.413 -176.094,27.253c-3.406,-13.364 -6.289,-26.991 -9.171,-40.617c-24.632,-126.829 -8.386,-222.476 33.017,-246.322Zm-64.2,690.749c-11.006,-3.144 -21.75,-6.551 -32.494,-10.22c-55.815,-17.557 -119.23,-45.333 -165.088,-81.757c-26.466,-18.343 -44.285,-46.644 -49.264,-78.352c-0,-47.954 82.806,-109.272 202.298,-150.937c14.937,-5.241 30.135,-9.958 45.334,-14.413c17.819,56.864 39.306,112.679 64.201,166.661c-25.157,54.767 -46.906,111.368 -64.987,169.018Zm305.543,256.804c-43.237,39.568 -93.288,71.014 -147.793,92.501c-29.087,13.889 -62.628,15.199 -92.501,3.407c-41.665,-24.108 -58.96,-116.61 -35.376,-241.081c2.882,-14.674 6.027,-29.349 9.695,-43.761c58.698,12.578 117.92,21.225 177.928,25.68c34.59,49.002 72.587,95.908 113.203,139.932c-8.385,8.123 -16.77,15.984 -25.156,23.322Zm64.201,-63.677c-26.728,-28.825 -53.457,-60.794 -79.399,-95.122c25.156,1.048 51.098,1.572 77.303,1.572c26.99,-0 53.457,-0.524 79.661,-1.834c-24.108,33.279 -50.05,64.987 -77.565,95.384Zm342.492,78.613c-2.359,31.969 -18.081,61.843 -43.237,82.02c-41.665,24.108 -130.498,-7.337 -226.407,-89.619c-11.006,-9.434 -22.011,-19.654 -33.279,-30.135c40.092,-44.286 77.041,-91.192 110.582,-140.456c60.009,-4.979 119.755,-14.15 178.715,-27.515c2.62,10.744 4.978,21.488 7.075,31.97c12.84,56.601 14.936,115.561 6.551,173.735Zm47.692,-281.698c-7.337,2.359 -14.675,4.717 -22.274,6.814c-18.343,-57.126 -40.879,-112.941 -66.821,-167.185c25.156,-53.457 46.382,-108.486 64.201,-164.825c13.626,3.93 26.728,8.123 39.306,12.316c122.113,41.927 207.801,104.293 207.801,151.985c0,51.361 -91.453,117.658 -222.213,160.895Zm-392.28,-39.306c66.297,-0 120.016,-53.719 120.016,-120.016c-0,-66.298 -53.719,-120.017 -120.016,-120.017c-66.298,0 -120.017,53.719 -120.017,120.017c0,66.297 53.719,120.016 120.017,120.016Z" style="fill:#0df;fill-rule:nonzero;"/></svg>